<svg width="0" height="0" class="hidden">
  <symbol fill="none" xmlns="http://www.w3.org/2000/svg" viewBox="0 0 24 24" id="clock">
    <path d="M12 6V12L16 14M22 12C22 17.5228 17.5228 22 12 22C6.47715 22 2 17.5228 2 12C2 6.47715 6.47715 2 12 2C17.5228 2 22 6.47715 22 12Z" stroke-width="2" stroke-linecap="round" stroke-linejoin="round"></path>
  </symbol>
  <symbol fill="none" xmlns="http://www.w3.org/2000/svg" viewBox="0 0 24 24" id="search">
    <path d="M21 21L16.65 16.65M11 6C13.7614 6 16 8.23858 16 11M19 11C19 15.4183 15.4183 19 11 19C6.58172 19 3 15.4183 3 11C3 6.58172 6.58172 3 11 3C15.4183 3 19 6.58172 19 11Z" stroke-width="2" stroke-linecap="round" stroke-linejoin="round"></path>
  </symbol>
  <symbol fill="none" xmlns="http://www.w3.org/2000/svg" viewBox="0 0 24 24" id="close">
    <path d="M18 6L6 18M6 6L18 18" stroke-width="2" stroke-linecap="round" stroke-linejoin="round"></path>
  </symbol>
  <symbol fill="none" xmlns="http://www.w3.org/2000/svg" viewBox="0 0 24 24" id="arrow-next">
    <path d="M5 12H19M19 12L12 5M19 12L12 19" stroke-width="2" stroke-linecap="round" stroke-linejoin="round"></path>
  </symbol>
  <symbol fill="none" xmlns="http://www.w3.org/2000/svg" viewBox="0 0 24 24" id="arrow-up">
    <path d="M12 19V5M12 5L5 12M12 5L19 12" stroke-width="2" stroke-linecap="round" stroke-linejoin="round"></path>
  </symbol>
  <symbol fill="none" xmlns="http://www.w3.org/2000/svg" viewBox="0 0 24 24" id="phone">
    <g clip-path="url(#clip0_76_44549)">
      <path d="M14.0848 5.91992C15.0616 6.11049 15.9592 6.58818 16.6629 7.29186C17.3666 7.99554 17.8443 8.89319 18.0348 9.86992M14.0848 1.91992C16.1141 2.14536 18.0064 3.0541 19.4511 4.49693C20.8957 5.93976 21.8068 7.83093 22.0348 9.85992M10.2618 13.783C9.06022 12.5814 8.11143 11.2228 7.41543 9.77315C7.35557 9.64846 7.32563 9.58612 7.30264 9.50723C7.22091 9.22687 7.27961 8.88261 7.44963 8.64518C7.49747 8.57837 7.55462 8.52121 7.66893 8.4069C8.01854 8.0573 8.19334 7.88249 8.30763 7.70672C8.73862 7.04382 8.73862 6.18924 8.30763 5.52635C8.19334 5.35058 8.01854 5.17577 7.66893 4.82617L7.47406 4.6313C6.94262 4.09985 6.6769 3.83413 6.39152 3.68979C5.82396 3.40272 5.15369 3.40272 4.58613 3.68979C4.30075 3.83413 4.03503 4.09985 3.50359 4.6313L3.34595 4.78893C2.81633 5.31855 2.55152 5.58337 2.34927 5.9434C2.12485 6.3429 1.96349 6.9634 1.96485 7.42162C1.96608 7.83456 2.04618 8.11679 2.20639 8.68123C3.06736 11.7146 4.69184 14.577 7.07982 16.965C9.4678 19.353 12.3302 20.9774 15.3636 21.8384C15.928 21.9986 16.2102 22.0787 16.6232 22.0799C17.0814 22.0813 17.7019 21.9199 18.1014 21.6955C18.4614 21.4933 18.7262 21.2285 19.2559 20.6988L19.4135 20.5412C19.9449 20.0098 20.2107 19.744 20.355 19.4587C20.6421 18.8911 20.6421 18.2208 20.355 17.6533C20.2107 17.3679 19.9449 17.1022 19.4135 16.5707L19.2186 16.3759C18.869 16.0262 18.6942 15.8514 18.5184 15.7372C17.8555 15.3062 17.001 15.3062 16.3381 15.7372C16.1623 15.8514 15.9875 16.0262 15.6379 16.3759C15.5236 16.4902 15.4664 16.5473 15.3996 16.5952C15.1622 16.7652 14.8179 16.8239 14.5376 16.7422C14.4587 16.7192 14.3963 16.6892 14.2716 16.6294C12.822 15.9334 11.4634 14.9846 10.2618 13.783Z" stroke-width="2" stroke-linecap="round" stroke-linejoin="round"></path>
    </g>
    <defs>
      <clipPath id="clip0_76_44549">
        <rect width="24" height="24" fill="white"></rect>
      </clipPath>
    </defs>
  </symbol>
  <symbol xmlns="http://www.w3.org/2000/svg" viewBox="0 0 19 19" id="max">
    <path fill-rule="evenodd" clip-rule="evenodd" d="M9.80238 4.68837C7.31668 4.55752 5.37691 6.28897 4.94917 8.99899C4.59494 11.2432 5.22298 13.9778 5.76017 14.1155C5.98802 14.1738 6.53632 13.7528 6.93523 13.3752C7.01023 13.3042 7.12363 13.2923 7.21158 13.3463C7.83342 13.728 8.53747 14.0148 9.31364 14.0557C11.8655 14.19 14.127 12.1851 14.2606 9.62324C14.3943 7.06134 12.3543 4.8227 9.80238 4.68837ZM5.63989 17.6987C5.54364 17.6303 5.41104 17.6489 5.33039 17.7352C4.25232 18.8895 1.49329 19.6991 1.36691 18.1237C1.36691 16.8894 1.09073 15.8493 0.786665 14.7041C0.414257 13.3015 0 11.7413 0 9.47377C0 4.06652 4.41764 0 9.65547 0C14.8933 0 19 4.26506 19 9.52629C19 14.7875 14.7626 18.9475 9.70503 18.9475C7.91074 18.9475 7.04002 18.6938 5.63989 17.6987Z"></path>
  </symbol>
  <symbol fill="none" xmlns="http://www.w3.org/2000/svg" viewBox="0 0 16 16" id="check">
    <path d="M3.5 7.47059L6.83333 11L12.5 5" stroke="white" stroke-width="1.5" stroke-linecap="round" stroke-linejoin="round"></path>
  </symbol>
  <symbol xmlns="http://www.w3.org/2000/svg" viewBox="0 0 24 24" id="star">
    <path d="M11.0489 4.92705C11.3483 4.00574 12.6517 4.00574 12.9511 4.92705L14.0206 8.21885C14.1545 8.63087 14.5385 8.90983 14.9717 8.90983H18.4329C19.4016 8.90983 19.8044 10.1494 19.0207 10.7188L16.2205 12.7533C15.87 13.0079 15.7234 13.4593 15.8572 13.8713L16.9268 17.1631C17.2261 18.0844 16.1717 18.8506 15.388 18.2812L12.5878 16.2467C12.2373 15.9921 11.7627 15.9921 11.4122 16.2467L8.61204 18.2812C7.82833 18.8506 6.77385 18.0844 7.0732 17.1631L8.14277 13.8713C8.27665 13.4593 8.12999 13.0079 7.7795 12.7533L4.97933 10.7188C4.19562 10.1494 4.59839 8.90983 5.56712 8.90983H9.02832C9.46154 8.90983 9.8455 8.63087 9.97937 8.21885L11.0489 4.92705Z"></path>
  </symbol>
  <symbol fill="none" xmlns="http://www.w3.org/2000/svg" viewBox="0 0 24 24" id="dots-grid">
    <path d="M12 6C12.5523 6 13 5.55228 13 5C13 4.44772 12.5523 4 12 4C11.4477 4 11 4.44772 11 5C11 5.55228 11.4477 6 12 6Z" stroke-width="2" stroke-linecap="round" stroke-linejoin="round"></path>
    <path d="M12 13C12.5523 13 13 12.5523 13 12C13 11.4477 12.5523 11 12 11C11.4477 11 11 11.4477 11 12C11 12.5523 11.4477 13 12 13Z" stroke-width="2" stroke-linecap="round" stroke-linejoin="round"></path>
    <path d="M12 20C12.5523 20 13 19.5523 13 19C13 18.4477 12.5523 18 12 18C11.4477 18 11 18.4477 11 19C11 19.5523 11.4477 20 12 20Z" stroke-width="2" stroke-linecap="round" stroke-linejoin="round"></path>
    <path d="M19 6C19.5523 6 20 5.55228 20 5C20 4.44772 19.5523 4 19 4C18.4477 4 18 4.44772 18 5C18 5.55228 18.4477 6 19 6Z" stroke-width="2" stroke-linecap="round" stroke-linejoin="round"></path>
    <path d="M19 13C19.5523 13 20 12.5523 20 12C20 11.4477 19.5523 11 19 11C18.4477 11 18 11.4477 18 12C18 12.5523 18.4477 13 19 13Z" stroke-width="2" stroke-linecap="round" stroke-linejoin="round"></path>
    <path d="M19 20C19.5523 20 20 19.5523 20 19C20 18.4477 19.5523 18 19 18C18.4477 18 18 18.4477 18 19C18 19.5523 18.4477 20 19 20Z" stroke-width="2" stroke-linecap="round" stroke-linejoin="round"></path>
    <path d="M5 6C5.55228 6 6 5.55228 6 5C6 4.44772 5.55228 4 5 4C4.44772 4 4 4.44772 4 5C4 5.55228 4.44772 6 5 6Z" stroke-width="2" stroke-linecap="round" stroke-linejoin="round"></path>
    <path d="M5 13C5.55228 13 6 12.5523 6 12C6 11.4477 5.55228 11 5 11C4.44772 11 4 11.4477 4 12C4 12.5523 4.44772 13 5 13Z" stroke-width="2" stroke-linecap="round" stroke-linejoin="round"></path>
    <path d="M5 20C5.55228 20 6 19.5523 6 19C6 18.4477 5.55228 18 5 18C4.44772 18 4 18.4477 4 19C4 19.5523 4.44772 20 5 20Z" stroke-width="2" stroke-linecap="round" stroke-linejoin="round"></path>
  </symbol>
  <symbol fill="none" xmlns="http://www.w3.org/2000/svg" viewBox="0 0 24 24" id="upload">
    <path d="M21 15V16.2C21 17.8802 21 18.7202 20.673 19.362C20.3854 19.9265 19.9265 20.3854 19.362 20.673C18.7202 21 17.8802 21 16.2 21H7.8C6.11984 21 5.27976 21 4.63803 20.673C4.07354 20.3854 3.6146 19.9265 3.32698 19.362C3 18.7202 3 17.8802 3 16.2V15M17 10L12 15M12 15L7 10M12 15V3" stroke-width="2" stroke-linecap="round" stroke-linejoin="round"></path>
  </symbol>

  <symbol fill="none" xmlns="http://www.w3.org/2000/svg" viewBox="0 0 24 24" id="geolocation">
    <path d="M12 13C13.6569 13 15 11.6569 15 10C15 8.34315 13.6569 7 12 7C10.3431 7 9 8.34315 9 10C9 11.6569 10.3431 13 12 13Z" stroke="#E8EAF6" stroke-width="2" stroke-linecap="round" stroke-linejoin="round"></path>
    <path d="M12 22C16 18 20 14.4183 20 10C20 5.58172 16.4183 2 12 2C7.58172 2 4 5.58172 4 10C4 14.4183 8 18 12 22Z" stroke="#E8EAF6" stroke-width="2" stroke-linecap="round" stroke-linejoin="round"></path>
  </symbol>
  <symbol fill="none" xmlns="http://www.w3.org/2000/svg" viewBox="0 0 24 24" id="lupa">
    <path d="M21 21L16.65 16.65M11 8V14M8 11H14M19 11C19 15.4183 15.4183 19 11 19C6.58172 19 3 15.4183 3 11C3 6.58172 6.58172 3 11 3C15.4183 3 19 6.58172 19 11Z" stroke="#3245A6" stroke-width="2" stroke-linecap="round" stroke-linejoin="round"></path>
  </symbol>
  
  
  <symbol xmlns="http://www.w3.org/2000/svg" viewBox="0 0 24 22" id="tg">
    <path d="M23.9799 1.89954C24.1668 0.633788 23.0181 -0.365281 21.9438 0.128855L0.547225 9.9704C-0.223159 10.3248 -0.166804 11.5473 0.6322 11.8138L5.04464 13.286C5.88689 13.5669 6.79874 13.4216 7.53419 12.8893L17.4825 5.68904C17.7825 5.47187 18.1095 5.91879 17.8531 6.19552L10.6921 13.9301C9.99749 14.6804 10.1353 15.9519 10.971 16.5008L18.9885 21.7679C19.8877 22.3586 21.0445 21.7652 21.2127 20.6267L23.9799 1.89954Z"></path>
  </symbol>
</svg>
