<svg width="16" height="16" viewBox="0 0 16 16" fill="none" xmlns="http://www.w3.org/2000/svg">
<path d="M7.53598 14.4102C7.68357 14.4963 7.75737 14.5393 7.86152 14.5617C7.94234 14.579 8.06026 14.579 8.14109 14.5617C8.24524 14.5393 8.31903 14.4963 8.46663 14.4102C9.76533 13.6525 13.3346 11.2725 13.3346 8.00024V4.81197C13.3346 4.27897 13.3346 4.01246 13.2475 3.78338C13.1705 3.581 13.0453 3.40042 12.8829 3.25726C12.699 3.0952 12.4494 3.00162 11.9504 2.81447L8.37583 1.47402C8.23724 1.42205 8.16794 1.39606 8.09665 1.38576C8.03341 1.37662 7.96919 1.37662 7.90596 1.38576C7.83467 1.39606 7.76537 1.42205 7.62677 1.47402L4.05224 2.81447C3.55317 3.00162 3.30363 3.0952 3.11974 3.25726C2.95729 3.40042 2.83215 3.581 2.75514 3.78338C2.66797 4.01246 2.66797 4.27897 2.66797 4.81197V8.00024C2.66797 11.2725 6.23728 13.6525 7.53598 14.4102Z" stroke="#17204D" stroke-width="2" stroke-linecap="round" stroke-linejoin="round"/>
</svg>
